<mxfile host="app.diagrams.net" modified="2021-01-18T14:39:13.968Z" agent="5.0 (Macintosh)" etag="sMpLy2nv5QxeRG5_Xl3B" version="14.2.4" type="github">
  <diagram id="C5RBs43oDa-KdzZeNtuy" name="Page-1">
    <mxGraphModel dx="1426" dy="831" grid="1" gridSize="10" guides="1" tooltips="1" connect="1" arrows="1" fold="1" page="1" pageScale="1" pageWidth="827" pageHeight="1169" math="0" shadow="0">
      <root>
        <mxCell id="WIyWlLk6GJQsqaUBKTNV-0" />
        <mxCell id="WIyWlLk6GJQsqaUBKTNV-1" parent="WIyWlLk6GJQsqaUBKTNV-0" />
        <mxCell id="D1-YBusbFk8xAOi95iSE-8" style="edgeStyle=orthogonalEdgeStyle;rounded=0;orthogonalLoop=1;jettySize=auto;html=1;exitX=0.5;exitY=1;exitDx=0;exitDy=0;exitPerimeter=0;" parent="WIyWlLk6GJQsqaUBKTNV-1" source="D1-YBusbFk8xAOi95iSE-2" edge="1">
          <mxGeometry relative="1" as="geometry">
            <mxPoint x="515" y="190" as="targetPoint" />
          </mxGeometry>
        </mxCell>
        <mxCell id="D1-YBusbFk8xAOi95iSE-2" value="开始" style="strokeWidth=1;html=1;shape=mxgraph.flowchart.start_1;whiteSpace=wrap;" parent="WIyWlLk6GJQsqaUBKTNV-1" vertex="1">
          <mxGeometry x="480" y="130" width="70" height="40" as="geometry" />
        </mxCell>
        <mxCell id="D1-YBusbFk8xAOi95iSE-3" value="结束" style="strokeWidth=1;html=1;shape=mxgraph.flowchart.terminator;whiteSpace=wrap;" parent="WIyWlLk6GJQsqaUBKTNV-1" vertex="1">
          <mxGeometry x="480" y="520" width="70" height="40" as="geometry" />
        </mxCell>
        <mxCell id="JQRMcTj1uw22zZtySL-t-3" style="edgeStyle=orthogonalEdgeStyle;rounded=0;orthogonalLoop=1;jettySize=auto;html=1;exitX=0.5;exitY=1;exitDx=0;exitDy=0;entryX=0.5;entryY=0;entryDx=0;entryDy=0;" parent="WIyWlLk6GJQsqaUBKTNV-1" source="D1-YBusbFk8xAOi95iSE-4" target="JQRMcTj1uw22zZtySL-t-1" edge="1">
          <mxGeometry relative="1" as="geometry" />
        </mxCell>
        <mxCell id="D1-YBusbFk8xAOi95iSE-4" value="读取节点最新区块块高度" style="rounded=1;whiteSpace=wrap;html=1;absoluteArcSize=1;arcSize=14;strokeWidth=1;" parent="WIyWlLk6GJQsqaUBKTNV-1" vertex="1">
          <mxGeometry x="445" y="190" width="140" height="40" as="geometry" />
        </mxCell>
        <mxCell id="D1-YBusbFk8xAOi95iSE-9" value="读取最新区块中的信息字段" style="rounded=1;whiteSpace=wrap;html=1;absoluteArcSize=1;arcSize=14;strokeWidth=1;" parent="WIyWlLk6GJQsqaUBKTNV-1" vertex="1">
          <mxGeometry x="445" y="340" width="140" height="40" as="geometry" />
        </mxCell>
        <mxCell id="fZ24Pr49zIEkieA5GfXy-0" value="将信息字段中十六进制的字符串转义为文本" style="rounded=1;whiteSpace=wrap;html=1;absoluteArcSize=1;arcSize=14;strokeWidth=1;" parent="WIyWlLk6GJQsqaUBKTNV-1" vertex="1">
          <mxGeometry x="445" y="400" width="140" height="40" as="geometry" />
        </mxCell>
        <mxCell id="fZ24Pr49zIEkieA5GfXy-1" value="调用LSTM分类器API进行分类" style="rounded=1;whiteSpace=wrap;html=1;absoluteArcSize=1;arcSize=14;strokeWidth=1;" parent="WIyWlLk6GJQsqaUBKTNV-1" vertex="1">
          <mxGeometry x="445" y="460" width="140" height="40" as="geometry" />
        </mxCell>
        <mxCell id="fZ24Pr49zIEkieA5GfXy-4" style="edgeStyle=orthogonalEdgeStyle;rounded=0;orthogonalLoop=1;jettySize=auto;html=1;exitX=0.5;exitY=1;exitDx=0;exitDy=0;" parent="WIyWlLk6GJQsqaUBKTNV-1" edge="1">
          <mxGeometry relative="1" as="geometry">
            <mxPoint x="514.8" y="500" as="sourcePoint" />
            <mxPoint x="514.8" y="520" as="targetPoint" />
          </mxGeometry>
        </mxCell>
        <mxCell id="fZ24Pr49zIEkieA5GfXy-5" style="edgeStyle=orthogonalEdgeStyle;rounded=0;orthogonalLoop=1;jettySize=auto;html=1;exitX=0.5;exitY=1;exitDx=0;exitDy=0;" parent="WIyWlLk6GJQsqaUBKTNV-1" edge="1">
          <mxGeometry relative="1" as="geometry">
            <mxPoint x="514.8" y="440" as="sourcePoint" />
            <mxPoint x="514.8" y="460" as="targetPoint" />
          </mxGeometry>
        </mxCell>
        <mxCell id="fZ24Pr49zIEkieA5GfXy-6" style="edgeStyle=orthogonalEdgeStyle;rounded=0;orthogonalLoop=1;jettySize=auto;html=1;exitX=0.5;exitY=1;exitDx=0;exitDy=0;" parent="WIyWlLk6GJQsqaUBKTNV-1" edge="1">
          <mxGeometry relative="1" as="geometry">
            <mxPoint x="514.8" y="380" as="sourcePoint" />
            <mxPoint x="514.8" y="400" as="targetPoint" />
          </mxGeometry>
        </mxCell>
        <mxCell id="JQRMcTj1uw22zZtySL-t-4" value="是" style="edgeStyle=orthogonalEdgeStyle;rounded=0;orthogonalLoop=1;jettySize=auto;html=1;exitX=0.5;exitY=1;exitDx=0;exitDy=0;entryX=0.5;entryY=0;entryDx=0;entryDy=0;" parent="WIyWlLk6GJQsqaUBKTNV-1" source="JQRMcTj1uw22zZtySL-t-1" target="D1-YBusbFk8xAOi95iSE-9" edge="1">
          <mxGeometry relative="1" as="geometry" />
        </mxCell>
        <mxCell id="JQRMcTj1uw22zZtySL-t-5" style="edgeStyle=orthogonalEdgeStyle;rounded=0;orthogonalLoop=1;jettySize=auto;html=1;exitX=1;exitY=0.5;exitDx=0;exitDy=0;entryX=1;entryY=0.25;entryDx=0;entryDy=0;" parent="WIyWlLk6GJQsqaUBKTNV-1" source="JQRMcTj1uw22zZtySL-t-1" target="D1-YBusbFk8xAOi95iSE-4" edge="1">
          <mxGeometry relative="1" as="geometry" />
        </mxCell>
        <mxCell id="JQRMcTj1uw22zZtySL-t-6" value="否" style="edgeLabel;html=1;align=center;verticalAlign=middle;resizable=0;points=[];" parent="JQRMcTj1uw22zZtySL-t-5" vertex="1" connectable="0">
          <mxGeometry x="0.1077" y="1" relative="1" as="geometry">
            <mxPoint as="offset" />
          </mxGeometry>
        </mxCell>
        <mxCell id="JQRMcTj1uw22zZtySL-t-1" value="是否存在新增区块" style="rhombus;whiteSpace=wrap;html=1;" parent="WIyWlLk6GJQsqaUBKTNV-1" vertex="1">
          <mxGeometry x="445" y="250" width="140" height="60" as="geometry" />
        </mxCell>
      </root>
    </mxGraphModel>
  </diagram>
</mxfile>
